<svg width="160" height="160" viewBox="0 0 160 160" fill="none" xmlns="http://www.w3.org/2000/svg">
<path d="M55.5243 87.1305L70.0554 86.9996C72.4118 85.2977 75.2918 83.7268 78.8264 83.7268C84.3246 83.7268 87.8592 87.6541 87.8592 94.9851C87.8592 101.662 85.5028 105.458 80.6591 105.458C75.9464 105.458 73.0663 101.923 73.3281 95.9015H54.2152C53.9534 115.276 65.3426 125.618 80.7901 125.618C92.0484 125.618 107.365 118.68 107.365 95.6397C107.365 77.3122 96.7612 68.0175 83.1464 68.0175C79.8737 68.0175 77.3864 68.4102 73.59 69.5884V55.7119H103.83V36.2062H55.5243V87.1305Z" fill="black"/>
</svg>
