<svg width="160" height="160" viewBox="0 0 160 160" fill="none" xmlns="http://www.w3.org/2000/svg">
<path d="M80.5405 125.618C91.4061 125.618 107.115 120.513 107.115 95.6397C107.115 75.0867 96.6425 69.3266 86.1697 69.3266C80.4096 69.3266 76.7441 71.0285 73.3404 73.3849H72.9477V63.3047C72.9477 56.2355 75.435 53.3555 80.1478 53.3555C86.0388 53.3555 86.8242 59.3774 86.6933 64.352H105.806C106.199 41.3117 95.2025 33.588 80.5405 33.588C64.8312 33.588 53.9656 42.7518 53.9656 64.0902V94.3306C53.9656 119.989 67.8422 125.618 80.5405 125.618ZM80.2787 86.8687C83.6824 86.8687 87.3479 89.4869 87.3479 95.6397C87.3479 102.971 83.9442 105.327 80.0169 105.327C76.0895 105.327 72.9477 102.84 72.9477 96.1633C72.9477 89.4869 75.8277 86.8687 80.2787 86.8687Z" fill="black"/>
</svg>
