<svg width="160" height="160" viewBox="0 0 160 160" fill="none" xmlns="http://www.w3.org/2000/svg">
<path d="M79.8982 33.588C67.069 33.588 53.5852 42.359 53.5852 56.8901C53.5852 68.9339 58.6907 73.9085 64.058 77.574V78.0976C58.5598 81.2395 52.6688 88.8323 52.6688 98.5197C52.6688 117.894 67.069 125.618 79.8982 125.618C92.9893 125.618 107.259 117.894 107.259 98.5197C107.259 88.8323 101.368 81.2395 95.8693 78.0976V77.574C101.237 73.9085 106.342 68.9339 106.342 56.8901C106.342 42.359 92.8584 33.588 79.8982 33.588ZM80.0291 86.9996C84.4801 86.9996 88.0147 90.9269 88.0147 96.4251C88.0147 102.447 84.7419 106.113 80.0291 106.113C75.4473 106.113 72.0436 102.447 72.0436 96.4251C72.0436 90.9269 75.5782 86.9996 80.0291 86.9996ZM80.0291 69.0648C75.9709 69.0648 72.829 65.5302 72.829 60.5556C72.829 55.0574 75.7091 51.7846 80.0291 51.7846C84.3492 51.7846 87.2292 55.0574 87.2292 60.5556C87.2292 65.5302 84.0874 69.0648 80.0291 69.0648Z" fill="black"/>
</svg>
