<svg width="160" height="160" viewBox="0 0 160 160" fill="none" xmlns="http://www.w3.org/2000/svg">
<path d="M79.755 33.588C66.0094 33.588 52.9184 42.0972 52.9184 62.2574C52.9184 83.0722 64.1767 89.7487 75.1732 89.7487C81.1951 89.7487 84.0751 87.9159 86.8242 85.8214H86.9551V96.9488C86.9551 103.102 84.7296 105.851 79.755 105.851C73.7331 105.851 73.2095 99.8288 73.3404 96.4251H54.2275C53.8347 115.931 64.7003 125.618 79.755 125.618C94.0243 125.618 105.937 116.978 105.937 94.7233V64.352C105.937 39.0863 92.0606 33.588 79.755 33.588ZM80.0169 71.9448C76.3514 71.9448 72.8168 69.1957 72.8168 63.0429C72.8168 55.7119 76.2205 53.4864 80.0169 53.4864C83.8133 53.4864 87.086 55.8428 87.086 62.5193C87.086 69.1957 83.9442 71.9448 80.0169 71.9448Z" fill="black"/>
</svg>
