<svg width="160" height="160" viewBox="0 0 160 160" fill="none" xmlns="http://www.w3.org/2000/svg">
<path d="M82.0051 123C99.8089 123 108.056 112.527 108.056 98.2579C108.056 89.225 102.558 81.1086 95.227 78.7522V78.0976C99.2853 76.0031 106.485 69.7194 106.485 58.461C106.485 47.0718 98.6307 36.2062 80.1723 36.2062H55.0375V123H82.0051ZM79.5178 87.785C84.6233 87.785 87.1106 91.0578 87.1106 96.0324C87.1106 100.614 84.6233 103.887 79.9105 103.887H75.8523V87.785H79.5178ZM75.8523 55.581H79.2559C83.9687 55.581 86.1942 58.1992 86.1942 63.0429C86.1942 67.7557 83.8378 70.6357 78.6014 70.6357H75.8523V55.581Z" fill="black"/>
</svg>
