<svg width="160" height="160" viewBox="0 0 160 160" fill="none" xmlns="http://www.w3.org/2000/svg">
<path d="M78.8177 95.6397H87.4578V97.4724C87.4578 102.971 84.3159 104.934 80.6504 104.934C76.7231 104.934 73.4504 102.578 73.4504 96.2942V62.912C73.4504 56.4974 77.1159 54.5337 80.5195 54.5337C84.3159 54.5337 87.5887 56.3665 87.4578 65.2684L107.356 65.6611C107.749 37.6462 89.8142 33.588 80.2577 33.588C68.083 33.588 52.5047 39.7408 52.5047 63.9593V94.1996C52.5047 121.036 69.1303 125.618 80.2577 125.618C91.3851 125.618 107.356 119.989 107.356 94.3306V77.7049H78.8177V95.6397Z" fill="black"/>
</svg>
