<svg width="160" height="160" viewBox="0 0 160 160" fill="none" xmlns="http://www.w3.org/2000/svg">
<path d="M51.6098 96.556C51.6098 117.764 65.0936 125.618 79.4937 125.618C82.5047 125.618 85.6465 125.225 88.6575 124.309L98.083 132.033L111.174 117.894L103.974 111.742C106.069 107.683 107.378 102.578 107.378 96.4251V62.6502C107.378 42.2281 93.8939 33.588 79.4937 33.588C65.0936 33.588 51.6098 42.2281 51.6098 62.7811V96.556ZM86.432 96.1633C86.432 101.923 83.2901 104.28 79.4937 104.28C75.6973 104.28 72.5555 101.923 72.5555 96.1633V63.3047C72.5555 57.4137 75.6973 55.0574 79.4937 55.0574C83.2901 55.0574 86.432 57.4137 86.432 63.3047V96.1633Z" fill="black"/>
</svg>
