<svg width="160" height="160" viewBox="0 0 160 160" fill="none" xmlns="http://www.w3.org/2000/svg">
<path d="M79.6696 92.3669C84.6442 96.0324 84.9061 99.0433 84.9061 101.007C84.9061 104.28 83.3351 106.636 79.2769 106.636C74.5641 106.636 72.3386 103.232 72.6005 94.9851H54.0111C53.3566 118.287 66.1858 125.618 80.0624 125.618C94.3316 125.618 106.375 116.062 106.375 100.483C106.375 92.1051 104.019 84.3813 91.7134 75.0867L80.1933 66.4466C75.8732 63.1738 74.9569 60.032 74.9569 57.8065C74.9569 54.5337 76.6587 52.1773 80.9787 52.1773C85.8224 52.1773 87.6552 56.4974 87.3934 64.352H105.983C106.637 40.6572 93.5462 33.588 80.586 33.588C67.2331 33.588 54.4039 42.7518 54.4039 57.4137C54.4039 67.8866 57.5457 76.134 69.9823 85.2977L79.6696 92.3669Z" fill="black"/>
</svg>
